<?xml version="1.0" encoding="UTF-8" standalone="no"?>
<svg xmlns="http://www.w3.org/2000/svg" xmlns:xlink="http://www.w3.org/1999/xlink" version="1.1" width="1024" height="1024" viewBox="0 0 1024 1024" xml:space="preserve" xmlns:c2pa="http://c2pa.org/manifest"><metadata><c2pa:manifest>AAAWgmp1bWIAAAAeanVtZGMycGEAEQAQgAAAqgA4m3EDYzJwYQAAABZcanVtYgAAAEdqdW1kYzJtYQARABCAAACqADibcQN1cm46YzJwYTozM2NkYTUwNS1mNDNhLTQ4M2UtOWE4ZC00YWI0ZjdjNDg5M2QAAAADl2p1bWIAAAApanVtZGMyYXMAEQAQgAAAqgA4m3EDYzJwYS5hc3NlcnRpb25zAAAAALxqdW1iAAAARGp1bWRjYm9yABEAEIAAAKoAOJtxE2MycGEuaW5ncmVkaWVudC52MwAAAAAYYzJzaCTiNcyK8FVcZ/H+6UIY4iwAAABwY2JvcqNpZGM6Zm9ybWF0bWltYWdlL3N2Zyt4bWxqaW5zdGFuY2VJRHgseG1wOmlpZDozMDc5MzlkYy1hMTdhLTQ4NzAtYTA0YS1iYjA1MWFiM2E1ZDVscmVsYXRpb25zaGlwaHBhcmVudE9mAAAB4mp1bWIAAABBanVtZGNib3IAEQAQgAAAqgA4m3ETYzJwYS5hY3Rpb25zLnYyAAAAABhjMnNotNw15fZ87TfdE55hVeJjwwAAAZljYm9yomdhY3Rpb25zgqJmYWN0aW9ua2MycGEub3BlbmVkanBhcmFtZXRlcnOha2luZ3JlZGllbnRzgaJjdXJseC1zZWxmI2p1bWJmPWMycGEuYXNzZXJ0aW9ucy9jMnBhLmluZ3JlZGllbnQudjNkaGFzaFggzFWMqkS5MW3n+byBSs/2HlTBK1KU//aQXPuEIyuyoF6kZmFjdGlvbngdY29tLmFudGhyb3BpYy5jbGF1ZGUucHJvdmlkZWRqcGFyYW1ldGVyc6F4H2NvbS5hbnRocm9waWMub3JpZ2luLWNvbmZpZGVuY2VndW5rbm93bmtkZXNjcmlwdGlvbnhmQ2xhdWRlIHByb3ZpZGVkIHRoaXMgZmlsZSBhdCB0aGUgcmVxdWVzdCBvZiBhIHVzZXIgYW5kIG1heSBoYXZlIGNyZWF0ZWQgb3IgbW9kaWZpZWQgdGhlIGZpbGUgY29udGVudHMubXNvZnR3YXJlQWdlbnShZG5hbWVmQ2xhdWRlcmFsbEFjdGlvbnNJbmNsdWRlZPUAAADIanVtYgAAAEBqdW1kY2JvcgARABCAAACqADibcRNjMnBhLmhhc2guZGF0YQAAAAAYYzJzaFAXd21foClcFEOtSbbblBEAAACAY2JvcqVjYWxnZnNoYTI1NmNwYWRMAAAAAAAAAAAAAAAAZGhhc2hYIMVwGuAXx5qxOoLCoTjjxFMSXr+u1P3GddEfLM1hcwggZG5hbWVuanVtYmYgbWFuaWZlc3RqZXhjbHVzaW9uc4GiZXN0YXJ0GQEfZmxlbmd0aBkeBAAAAj5qdW1iAAAAJ2p1bWRjMmNsABEAEIAAAKoAOJtxA2MycGEuY2xhaW0udjIAAAACD2Nib3KlY2FsZ2ZzaGEyNTZpc2lnbmF0dXJleE1zZWxmI2p1bWJmPS9jMnBhL3VybjpjMnBhOjMzY2RhNTA1LWY0M2EtNDgzZS05YThkLTRhYjRmN2M0ODkzZC9jMnBhLnNpZ25hdHVyZWppbnN0YW5jZUlEeCx4bXA6aWlkOmNhMDVlOTBjLWQ3NmMtNDYzNi04MzkzLWU2YzUwNWQ5YTZmOXJjcmVhdGVkX2Fzc2VydGlvbnODomN1cmx4LXNlbGYjanVtYmY9YzJwYS5hc3NlcnRpb25zL2MycGEuaW5ncmVkaWVudC52M2RoYXNoWCDMVYyqRLkxbef5vIFKz/YeVMErUpT/9pBc+4QjK7KgXqJjdXJseCpzZWxmI2p1bWJmPWMycGEuYXNzZXJ0aW9ucy9jMnBhLmFjdGlvbnMudjJkaGFzaFggpn1wKaXIGmN7q4dL5iVCoyA8YktKweMo6ZS39VRk/B6iY3VybHgpc2VsZiNqdW1iZj1jMnBhLmFzc2VydGlvbnMvYzJwYS5oYXNoLmRhdGFkaGFzaFgg6bkFdnhJBuDs5kGWRMdZGBiSMOCnmxoLt91RHuG/ShJ0Y2xhaW1fZ2VuZXJhdG9yX2luZm+jZG5hbWVvQW50aHJvcGljIEZpbGVzZ3ZlcnNpb25lMS4wLjBrc3BlY1ZlcnNpb25lMi40LjAAABA4anVtYgAAAChqdW1kYzJjcwARABCAAACqADibcQNjMnBhLnNpZ25hdHVyZQAAABAIY2JvctKEWQISogEmGCFZAgowggIGMIIBjaADAgECAhRA5aAK7sI50L64g/oGQgU9Z1UTADAKBggqhkjOPQQDAzBJMRcwFQYDVQQKEw5BbnRocm9waWMsIFBCQzEuMCwGA1UEAxMlQW50aHJvcGljIENvbnRlbnQgQ3JlZGVudGlhbHMgUm9vdCBDQTAeFw0yNjA4MDcxODQzNTZaFw0yODA4MDYxOTQzNTZaMEQxFzAVBgNVBAoTDkFudGhyb3BpYywgUEJDMSkwJwYDVQQDEyBBbnRocm9waWMgQ2xhdWRlIENvbnRlbnQgU2lnbmluZzBZMBMGByqGSM49AgEGCCqGSM49AwEHA0IABJh6CmvLUBgFFNU0vUKlOVtE6djd17L5SuwX0LemFisBM3dkd/3cyjxFA3Qo5S46fX0/ihY0VZ7mfb9KF703t5OjWDBWMA4GA1UdDwEB/wQEAwIHgDAVBgNVHSUEDjAMBgorBgEEAYPoXgIBMAwGA1UdEwEB/wQCMAAwHwYDVR0jBBgwFoAUzlHiBIFOZFsj+OPEz5o+nMHXXMIwCgYIKoZIzj0EAwMDZwAwZAIwMXMdFJ4BetLLVY7ORuE9noqbbAZOZn/aArXyTwFAZfKrPzxF2vPoJNf1+UCdg1XGAjBwX1zd9WGqYkqmL5SFqw1QySjr1zJfpJM9+1rdDwSPLMOPOjKuiXjoU/pUUeG9RwmhY3BhZFkNngAAAAAAAAAAAAAAAAAAAAAAAAAAAAAAAAAAAAAAAAAAAAAAAAAAAAAAAAAAAAAAAAAAAAAAAAAAAAAAAAAAAAAAAAAAAAAAAAAAAAAAAAAAAAAAAAAAAAAAAAAAAAAAAAAAAAAAAAAAAAAAAAAAAAAAAAAAAAAAAAAAAAAAAAAAAAAAAAAAAAAAAAAAAAAAAAAAAAAAAAAAAAAAAAAAAAAAAAAAAAAAAAAAAAAAAAAAAAAAAAAAAAAAAAAAAAAAAAAAAAAAAAAAAAAAAAAAAAAAAAAAAAAAAAAAAAAAAAAAAAAAAAAAAAAAAAAAAAAAAAAAAAAAAAAAAAAAAAAAAAAAAAAAAAAAAAAAAAAAAAAAAAAAAAAAAAAAAAAAAAAAAAAAAAAAAAAAAAAAAAAAAAAAAAAAAAAAAAAAAAAAAAAAAAAAAAAAAAAAAAAAAAAAAAAAAAAAAAAAAAAAAAAAAAAAAAAAAAAAAAAAAAAAAAAAAAAAAAAAAAAAAAAAAAAAAAAAAAAAAAAAAAAAAAAAAAAAAAAAAAAAAAAAAAAAAAAAAAAAAAAAAAAAAAAAAAAAAAAAAAAAAAAAAAAAAAAAAAAAAAAAAAAAAAAAAAAAAAAAAAAAAAAAAAAAAAAAAAAAAAAAAAAAAAAAAAAAAAAAAAAAAAAAAAAAAAAAAAAAAAAAAAAAAAAAAAAAAAAAAAAAAAAAAAAAAAAAAAAAAAAAAAAAAAAAAAAAAAAAAAAAAAAAAAAAAAAAAAAAAAAAAAAAAAAAAAAAAAAAAAAAAAAAAAAAAAAAAAAAAAAAAAAAAAAAAAAAAAAAAAAAAAAAAAAAAAAAAAAAAAAAAAAAAAAAAAAAAAAAAAAAAAAAAAAAAAAAAAAAAAAAAAAAAAAAAAAAAAAAAAAAAAAAAAAAAAAAAAAAAAAAAAAAAAAAAAAAAAAAAAAAAAAAAAAAAAAAAAAAAAAAAAAAAAAAAAAAAAAAAAAAAAAAAAAAAAAAAAAAAAAAAAAAAAAAAAAAAAAAAAAAAAAAAAAAAAAAAAAAAAAAAAAAAAAAAAAAAAAAAAAAAAAAAAAAAAAAAAAAAAAAAAAAAAAAAAAAAAAAAAAAAAAAAAAAAAAAAAAAAAAAAAAAAAAAAAAAAAAAAAAAAAAAAAAAAAAAAAAAAAAAAAAAAAAAAAAAAAAAAAAAAAAAAAAAAAAAAAAAAAAAAAAAAAAAAAAAAAAAAAAAAAAAAAAAAAAAAAAAAAAAAAAAAAAAAAAAAAAAAAAAAAAAAAAAAAAAAAAAAAAAAAAAAAAAAAAAAAAAAAAAAAAAAAAAAAAAAAAAAAAAAAAAAAAAAAAAAAAAAAAAAAAAAAAAAAAAAAAAAAAAAAAAAAAAAAAAAAAAAAAAAAAAAAAAAAAAAAAAAAAAAAAAAAAAAAAAAAAAAAAAAAAAAAAAAAAAAAAAAAAAAAAAAAAAAAAAAAAAAAAAAAAAAAAAAAAAAAAAAAAAAAAAAAAAAAAAAAAAAAAAAAAAAAAAAAAAAAAAAAAAAAAAAAAAAAAAAAAAAAAAAAAAAAAAAAAAAAAAAAAAAAAAAAAAAAAAAAAAAAAAAAAAAAAAAAAAAAAAAAAAAAAAAAAAAAAAAAAAAAAAAAAAAAAAAAAAAAAAAAAAAAAAAAAAAAAAAAAAAAAAAAAAAAAAAAAAAAAAAAAAAAAAAAAAAAAAAAAAAAAAAAAAAAAAAAAAAAAAAAAAAAAAAAAAAAAAAAAAAAAAAAAAAAAAAAAAAAAAAAAAAAAAAAAAAAAAAAAAAAAAAAAAAAAAAAAAAAAAAAAAAAAAAAAAAAAAAAAAAAAAAAAAAAAAAAAAAAAAAAAAAAAAAAAAAAAAAAAAAAAAAAAAAAAAAAAAAAAAAAAAAAAAAAAAAAAAAAAAAAAAAAAAAAAAAAAAAAAAAAAAAAAAAAAAAAAAAAAAAAAAAAAAAAAAAAAAAAAAAAAAAAAAAAAAAAAAAAAAAAAAAAAAAAAAAAAAAAAAAAAAAAAAAAAAAAAAAAAAAAAAAAAAAAAAAAAAAAAAAAAAAAAAAAAAAAAAAAAAAAAAAAAAAAAAAAAAAAAAAAAAAAAAAAAAAAAAAAAAAAAAAAAAAAAAAAAAAAAAAAAAAAAAAAAAAAAAAAAAAAAAAAAAAAAAAAAAAAAAAAAAAAAAAAAAAAAAAAAAAAAAAAAAAAAAAAAAAAAAAAAAAAAAAAAAAAAAAAAAAAAAAAAAAAAAAAAAAAAAAAAAAAAAAAAAAAAAAAAAAAAAAAAAAAAAAAAAAAAAAAAAAAAAAAAAAAAAAAAAAAAAAAAAAAAAAAAAAAAAAAAAAAAAAAAAAAAAAAAAAAAAAAAAAAAAAAAAAAAAAAAAAAAAAAAAAAAAAAAAAAAAAAAAAAAAAAAAAAAAAAAAAAAAAAAAAAAAAAAAAAAAAAAAAAAAAAAAAAAAAAAAAAAAAAAAAAAAAAAAAAAAAAAAAAAAAAAAAAAAAAAAAAAAAAAAAAAAAAAAAAAAAAAAAAAAAAAAAAAAAAAAAAAAAAAAAAAAAAAAAAAAAAAAAAAAAAAAAAAAAAAAAAAAAAAAAAAAAAAAAAAAAAAAAAAAAAAAAAAAAAAAAAAAAAAAAAAAAAAAAAAAAAAAAAAAAAAAAAAAAAAAAAAAAAAAAAAAAAAAAAAAAAAAAAAAAAAAAAAAAAAAAAAAAAAAAAAAAAAAAAAAAAAAAAAAAAAAAAAAAAAAAAAAAAAAAAAAAAAAAAAAAAAAAAAAAAAAAAAAAAAAAAAAAAAAAAAAAAAAAAAAAAAAAAAAAAAAAAAAAAAAAAAAAAAAAAAAAAAAAAAAAAAAAAAAAAAAAAAAAAAAAAAAAAAAAAAAAAAAAAAAAAAAAAAAAAAAAAAAAAAAAAAAAAAAAAAAAAAAAAAAAAAAAAAAAAAAAAAAAAAAAAAAAAAAAAAAAAAAAAAAAAAAAAAAAAAAAAAAAAAAAAAAAAAAAAAAAAAAAAAAAAAAAAAAAAAAAAAAAAAAAAAAAAAAAAAAAAAAAAAAAAAAAAAAAAAAAAAAAAAAAAAAAAAAAAAAAAAAAAAAAAAAAAAAAAAAAAAAAAAAAAAAAAAAAAAAAAAAAAAAAAAAAAAAAAAAAAAAAAAAAAAAAAAAAAAAAAAAAAAAAAAAAAAAAAAAAAAAAAAAAAAAAAAAAAAAAAAAAAAAAAAAAAAAAAAAAAAAAAAAAAAAAAAAAAAAAAAAAAAAAAAAAAAAAAAAAAAAAAAAAAAAAAAAAAAAAAAAAAAAAAAAAAAAAAAAAAAAAAAAAAAAAAAAAAAAAAAAAAAAAAAAAAAAAAAAAAAAAAAAAAAAAAAAAAAAAAAAAAAAAAAAAAAAAAAAAAAAAAAAAAAAAAAAAAAAAAAAAAAAAAAAAAAAAAAAAAAAAAAAAAAAAAAAAAAAAAAAAAAAAAAAAAAAAAAAAAAAAAAAAAAAAAAAAAAAAAAAAAAAAAAAAAAAAAAAAAAAAAAAAAAAAAAAAAAAAAAAAAAAAAAAAAAAAAAAAAAAAAAAAAAAAAAAAAAAAAAAAAAAAAAAAAAAAAAAAAAAAAAAAAAAAAAAAAAAAAAAAAAAAAAAAAAAAAAAAAAAAAAAAAAAAAAAAAAAAAAAAAAAAAAAAAAAAAAAAAAAAAAAAAAAAAAAAAAAAAAAAAAAAAAAAAAAAAAAAAAAAAAAAAAAAAAAAAAAAAAAAAAAAAAAAAAAAAAAAAAAAAAAAAAAAAAAAAAAAAAAAAAAAAAAAAAAAAAAAAAAAAAAAAAAAAAAAAAAAAAAAAAAAAAAAAAAAAAAAAAAAAAAAAAAAAAAAAAAAAAAAAAAAAAAAAAAAAAAAAAAAAAAAAAAAAAAAAAAAAAAAAAAAAAAAAAAAAAAAAAAAAAAAAAAAAAAAAAAAAAAAAAAAAAAAAAAAAAAAAAAAAAAAAAAAAAAAAAAAAAAAAAAAAAAAAAAAAAAAAAAAAAAAAAAAAAAAAAAAAAAAAAAAAAAAAAAAAAAAAAAAAAAAAAAAAAAAAAAAAAAAAAAAAAAAAAAAAAAAAAAAAAAAAAAAAAAAAAAAAAAAAAAAAAAAAAAAAAAAAAAAAAAAAAAAAAAAAAAAAAAAAAAAAAAAAAAAAAAAAAAAAAAAAAAAAAAAAAAAAAAAAAAAAAAAAAAAAAAAAAAAAAAAAAAAAAAAAAAAAAAAAAAAAAAAAAAAAAAAAAAAAAAAAAAAAAAAAAAAAAAAAAAAAAAAAAAAAAAAAAAAAAAAAAAAAAAAAAAAAAAAAAAAAAAAAAAAAAAAAAAAAAAAAAAAAAAAAAAAAAAAAAAAAAAAAAAAAAAAAAAAAAAAAAAAAAAAAAAAAAAAAAAAAAAAAAAAAAAAAAAAAAAAAAAAAAAAAAAAAAAAAAAAAAAAAAAAAAAAAAAAAAAAAAAAAAAAAAAAAAAAAAAAAAAAAAAAAAAAAAAAAAAAAAAAAAAAAAAAAAAAAAAAAAAAAAAAAAAAAAAAAAAAAAAAAAAAAAAAAAAAAAAAAAAAAAAAAAAAAAAAAAAAAAAAAAAAAAAAAAAAAAAAAAAAAAAAAAAAAAAAAAAAAAAAAAAAAAAAAAAAAAAAAAAAAAAAAAAAAAAAAAAAAAAAAAAAAAAAAAAAAAAAAAAAAAAAAAAAAAAAAAAAAAAAPZYQBjIONdxTM2wVx4Puh4JUuxheLKjgvrdycwSeb25bzGQzMuxTp2hzhdAWLJHhGevoO0BYk8bwjjyKVIuaXcsTa0=</c2pa:manifest></metadata>
<defs>
  <linearGradient id="bgGradient" x1="0%" y1="0%" x2="100%" y2="100%">
    <stop offset="0%" stop-color="#2D6A4F"/>
    <stop offset="55%" stop-color="#1B4332"/>
    <stop offset="100%" stop-color="#081C15"/>
  </linearGradient>
  <radialGradient id="shine" cx="30%" cy="20%" r="75%">
    <stop offset="0%" stop-color="#FFFFFF" stop-opacity="0.22"/>
    <stop offset="45%" stop-color="#FFFFFF" stop-opacity="0.06"/>
    <stop offset="100%" stop-color="#FFFFFF" stop-opacity="0"/>
  </radialGradient>
  <linearGradient id="markGradient" x1="0%" y1="0%" x2="100%" y2="100%">
    <stop offset="0%" stop-color="#FFFFFF"/>
    <stop offset="100%" stop-color="#EDF6F0"/>
  </linearGradient>
  <filter id="markShadow" x="-40%" y="-40%" width="180%" height="180%">
    <feDropShadow dx="0" dy="10" stdDeviation="14" flood-color="#04140F" flood-opacity="0.35"/>
  </filter>
  <clipPath id="roundedClip">
    <rect x="0" y="0" width="1024" height="1024" rx="230" ry="230"/>
  </clipPath>
</defs>

<g clip-path="url(#roundedClip)">
  <rect x="0" y="0" width="1024" height="1024" fill="url(#bgGradient)"/>
  <rect x="0" y="0" width="1024" height="1024" fill="url(#shine)"/>
  <!-- subtle diagonal glass highlight streak -->
  <path d="M -100 260 L 420 -100 L 620 -100 L -100 460 Z" fill="#FFFFFF" opacity="0.05"/>
  <!-- thin ring accent evoking a mirror rim -->
  <rect x="40" y="40" width="944" height="944" rx="196" ry="196" fill="none" stroke="#FFFFFF" stroke-opacity="0.10" stroke-width="3"/>
</g>

<g filter="url(#markShadow)">
  <g transform="matrix(5.9 0 0 5.9 512 512)">
    <g transform="matrix(1 0 0 1 -34.848 0)">
      <path style="stroke:none; fill:url(#markGradient); fill-rule:nonzero; opacity:1;" transform="translate(-100.3395, -102.7996)" d="M 77.68 121.6636 C 79.624 121.6636 81.496 121.0156 83.224 119.6476 C 84.952 118.2796 86.104 116.2636 86.536 113.5996 C 86.608 113.3116 86.68 112.9516 86.68 112.5916 C 86.68 112.2316 86.68 111.8716 86.68 111.4396 C 86.68 108.5596 86.392 105.6796 85.672 102.7996 C 84.952 99.9916 84.088 97.1836 82.936 94.4476 C 84.376 93.1516 85.744 92.1436 87.184 91.4236 C 88.624 90.7036 89.92 90.3436 91.144 90.3436 C 93.016 90.3436 94.6 91.1356 95.752 92.5756 C 96.976 94.0156 97.84 96.1036 98.416 98.7676 C 98.992 101.4316 99.28 104.6716 99.208 108.4156 C 99.136 112.1596 98.776 116.4076 98.056 121.0156 L 105.688 121.0156 C 105.832 116.2636 106.336 112.0156 107.128 108.2716 C 107.92 104.5276 108.928 101.2876 110.152 98.6236 C 111.376 95.9596 112.744 93.9436 114.256 92.5036 C 115.768 91.0636 117.28 90.3436 118.792 90.3436 C 120.304 90.3436 121.528 91.0636 122.464 92.5036 C 123.328 93.9436 123.976 96.0316 124.336 98.6956 C 124.696 101.3596 124.768 104.5996 124.624 108.3436 C 124.48 112.1596 124.048 116.4076 123.4 121.0876 L 130.6 121.0876 C 131.32 116.0476 131.68 111.2236 131.824 106.7596 C 131.968 102.2956 131.608 98.3356 130.816 94.9516 C 130.024 91.5676 128.656 88.9036 126.784 86.8876 C 124.84 84.8716 122.176 83.9356 118.864 83.9356 C 115.768 83.9356 112.96 84.8716 110.44 86.8876 C 107.992 88.8316 105.832 91.5676 104.032 95.0956 C 103.096 91.6396 101.584 88.9756 99.496 86.9596 C 97.408 84.9436 94.6 83.9356 91.144 83.9356 C 89.272 83.9356 87.4 84.2956 85.528 85.1596 C 83.656 85.9516 81.856 87.0316 80.128 88.3996 L 78.472 85.2316 L 71.056 85.2316 C 72.352 87.4636 73.576 89.6956 74.656 91.8556 C 75.808 94.0156 76.744 96.2476 77.536 98.4076 C 78.4 100.5676 79.048 102.7996 79.48 104.9596 C 79.984 107.1196 80.2 109.2796 80.2 111.4396 C 80.2 111.8716 80.2 112.2316 80.056 112.6636 C 79.984 113.0956 79.84 113.5276 79.624 113.8876 C 79.408 114.3196 79.12 114.6076 78.832 114.8236 C 78.544 115.1116 78.112 115.1836 77.608 115.1836 C 76.096 115.1836 75.304 114.1036 75.304 111.9436 C 75.304 110.5036 75.448 109.0636 75.736 107.6236 C 76.024 106.1836 76.456 104.8156 76.96 103.5196 C 76.6 102.1516 76.168 100.7836 75.664 99.4156 C 75.16 98.1196 74.584 96.7516 73.936 95.3116 C 72.424 97.7596 71.2 100.3516 70.264 103.1596 C 69.328 105.9676 68.824 108.9196 68.824 111.9436 C 68.824 114.6796 69.616 116.9836 71.2 118.8556 C 72.784 120.7276 74.944 121.6636 77.68 121.6636 Z" stroke-linecap="round"/>
    </g>
    <g transform="matrix(1 0 0 1 34.848 0)">
      <path style="stroke:none; fill:url(#markGradient); fill-rule:nonzero; opacity:1;" transform="translate(-100.3395, -102.7996)" d="M 77.68 121.6636 C 79.624 121.6636 81.496 121.0156 83.224 119.6476 C 84.952 118.2796 86.104 116.2636 86.536 113.5996 C 86.608 113.3116 86.68 112.9516 86.68 112.5916 C 86.68 112.2316 86.68 111.8716 86.68 111.4396 C 86.68 108.5596 86.392 105.6796 85.672 102.7996 C 84.952 99.9916 84.088 97.1836 82.936 94.4476 C 84.376 93.1516 85.744 92.1436 87.184 91.4236 C 88.624 90.7036 89.92 90.3436 91.144 90.3436 C 93.016 90.3436 94.6 91.1356 95.752 92.5756 C 96.976 94.0156 97.84 96.1036 98.416 98.7676 C 98.992 101.4316 99.28 104.6716 99.208 108.4156 C 99.136 112.1596 98.776 116.4076 98.056 121.0156 L 105.688 121.0156 C 105.832 116.2636 106.336 112.0156 107.128 108.2716 C 107.92 104.5276 108.928 101.2876 110.152 98.6236 C 111.376 95.9596 112.744 93.9436 114.256 92.5036 C 115.768 91.0636 117.28 90.3436 118.792 90.3436 C 120.304 90.3436 121.528 91.0636 122.464 92.5036 C 123.328 93.9436 123.976 96.0316 124.336 98.6956 C 124.696 101.3596 124.768 104.5996 124.624 108.3436 C 124.48 112.1596 124.048 116.4076 123.4 121.0876 L 130.6 121.0876 C 131.32 116.0476 131.68 111.2236 131.824 106.7596 C 131.968 102.2956 131.608 98.3356 130.816 94.9516 C 130.024 91.5676 128.656 88.9036 126.784 86.8876 C 124.84 84.8716 122.176 83.9356 118.864 83.9356 C 115.768 83.9356 112.96 84.8716 110.44 86.8876 C 107.992 88.8316 105.832 91.5676 104.032 95.0956 C 103.096 91.6396 101.584 88.9756 99.496 86.9596 C 97.408 84.9436 94.6 83.9356 91.144 83.9356 C 89.272 83.9356 87.4 84.2956 85.528 85.1596 C 83.656 85.9516 81.856 87.0316 80.128 88.3996 L 78.472 85.2316 L 71.056 85.2316 C 72.352 87.4636 73.576 89.6956 74.656 91.8556 C 75.808 94.0156 76.744 96.2476 77.536 98.4076 C 78.4 100.5676 79.048 102.7996 79.48 104.9596 C 79.984 107.1196 80.2 109.2796 80.2 111.4396 C 80.2 111.8716 80.2 112.2316 80.056 112.6636 C 79.984 113.0956 79.84 113.5276 79.624 113.8876 C 79.408 114.3196 79.12 114.6076 78.832 114.8236 C 78.544 115.1116 78.112 115.1836 77.608 115.1836 C 76.096 115.1836 75.304 114.1036 75.304 111.9436 C 75.304 110.5036 75.448 109.0636 75.736 107.6236 C 76.024 106.1836 76.456 104.8156 76.96 103.5196 C 76.6 102.1516 76.168 100.7836 75.664 99.4156 C 75.16 98.1196 74.584 96.7516 73.936 95.3116 C 72.424 97.7596 71.2 100.3516 70.264 103.1596 C 69.328 105.9676 68.824 108.9196 68.824 111.9436 C 68.824 114.6796 69.616 116.9836 71.2 118.8556 C 72.784 120.7276 74.944 121.6636 77.68 121.6636 Z" stroke-linecap="round"/>
    </g>
  </g>
</g>

</svg>
